<?xml version="1.0" standalone="no"?>
<!DOCTYPE svg PUBLIC "-//W3C//DTD SVG 20010904//EN"
 "http://www.w3.org/TR/2001/REC-SVG-20010904/DTD/svg10.dtd">
<svg version="1.0" xmlns="http://www.w3.org/2000/svg"
 width="940.000000pt" height="788.000000pt" viewBox="0 0 940.000000 788.000000"
 preserveAspectRatio="xMidYMid meet">

<g transform="translate(0.000000,788.000000) scale(0.100000,-0.100000)"
fill="#000000" stroke="none">
<path d="M5000 7464 c0 -75 -72 -239 -147 -334 -20 -25 -131 -139 -248 -255
-121 -120 -228 -235 -250 -269 -192 -297 -162 -676 73 -937 90 -99 117 -72 48
48 -73 128 -91 189 -91 323 0 96 4 124 23 172 46 113 117 204 336 427 234 238
257 271 296 425 26 104 27 247 1 340 -22 79 -41 107 -41 60z"/>
<path d="M5132 6848 c-48 -87 -151 -191 -297 -300 -192 -145 -291 -281 -340
-469 -34 -131 -4 -289 72 -378 38 -45 133 -125 140 -118 2 2 -11 34 -28 70
-37 80 -50 162 -38 239 19 119 57 175 298 443 177 196 220 254 246 330 26 77
23 255 -5 255 -4 0 -26 -33 -48 -72z"/>
<path d="M5286 6498 c-15 -82 -85 -181 -180 -255 -191 -149 -318 -317 -333
-442 -10 -89 37 -185 114 -228 l39 -22 -24 73 c-41 124 -19 161 182 310 124
92 170 140 208 218 53 107 62 262 21 343 l-20 38 -7 -35z"/>
<path d="M5553 5615 c-117 -30 -241 -88 -362 -169 -106 -71 -241 -190 -241
-212 0 -12 41 -14 253 -14 140 0 256 -3 259 -6 8 -7 -9 -65 -22 -78 -5 -5 -40
-13 -77 -17 -64 -7 -68 -9 -113 -57 -39 -42 -54 -51 -93 -57 -26 -4 -56 -5
-67 -2 -16 4 -20 -1 -25 -27 -10 -66 -37 -284 -75 -631 -39 -354 -40 -366 -40
-727 l0 -368 67 46 c150 102 342 178 536 209 l107 18 0 1058 c0 583 -3 1059
-7 1059 -5 -1 -49 -12 -100 -25z"/>
<path d="M3790 4578 l0 -1053 111 -18 c198 -32 393 -109 539 -211 l65 -45 3
342 c3 358 5 324 -53 852 -8 72 -24 218 -35 325 -24 221 -25 223 -109 245 -29
7 -68 25 -87 40 -45 34 -113 65 -146 65 -40 0 -57 10 -73 41 -32 61 -40 59
245 59 143 0 260 4 260 9 0 14 -113 120 -197 183 -134 102 -398 218 -495 218
l-28 0 0 -1052z"/>
<path d="M3400 4362 l0 -1050 183 -1 c199 0 342 -16 501 -56 55 -14 101 -23
103 -21 8 8 -151 71 -237 93 -71 18 -130 26 -235 29 l-140 5 -3 1013 c-2 856
-4 1015 -16 1019 -8 3 -46 9 -85 13 l-71 7 0 -1051z"/>
<path d="M5930 5401 l-45 -6 -3 -1016 -2 -1016 -143 -6 c-155 -7 -256 -27
-372 -75 -109 -45 -197 -95 -108 -61 59 22 222 59 331 73 67 10 185 16 292 16
l180 0 0 1050 0 1050 -42 -2 c-24 0 -63 -4 -88 -7z"/>
<path d="M6343 5183 l-63 -4 0 -1034 0 -1033 43 -7 c23 -3 57 -9 75 -12 l32
-5 0 1051 c0 835 -3 1051 -12 1049 -7 -1 -41 -3 -75 -5z"/>
<path d="M3030 4135 l0 -1045 23 4 c12 3 43 8 70 11 l47 6 0 1035 0 1034 -70
0 -70 0 0 -1045z"/>
<path d="M3350 3139 c-41 -5 -78 -10 -82 -11 -5 -2 110 -3 254 -3 145 0 299
-3 343 -7 l80 -6 -65 14 c-81 18 -427 26 -530 13z"/>
<path d="M5665 3141 c-101 -13 -207 -33 -202 -38 3 -2 45 2 93 9 57 8 192 13
374 13 163 0 266 3 240 8 -66 11 -435 17 -505 8z"/>
<path d="M6233 3113 c9 -2 23 -2 30 0 6 3 -1 5 -18 5 -16 0 -22 -2 -12 -5z"/>
<path d="M3958 3103 c6 -2 18 -2 25 0 6 3 1 5 -13 5 -14 0 -19 -2 -12 -5z"/>
<path d="M5428 3093 c7 -3 16 -2 19 1 4 3 -2 6 -13 5 -11 0 -14 -3 -6 -6z"/>
<path d="M4570 2979 c-63 -7 -99 -29 -159 -95 -104 -113 -205 -366 -306 -766
-26 -103 -52 -185 -56 -182 -25 15 -120 386 -153 598 -27 171 -41 199 -100
204 -21 2 -47 -3 -60 -11 -84 -56 -316 -713 -333 -943 -10 -134 21 -185 101
-170 48 9 73 45 81 114 26 218 156 771 171 727 2 -5 28 -108 58 -227 30 -119
66 -251 80 -292 61 -181 140 -296 204 -296 55 0 65 27 137 355 100 455 204
685 384 845 72 63 93 99 72 124 -14 17 -61 23 -121 15z"/>
<path d="M5757 2749 c-114 -27 -219 -110 -272 -216 -26 -51 -30 -69 -30 -143
0 -109 20 -148 124 -250 90 -88 116 -140 109 -220 -8 -84 -67 -147 -162 -171
-55 -14 -90 -6 -122 26 -21 21 -24 33 -24 93 0 53 -4 72 -17 84 -29 26 -59 30
-98 14 -44 -19 -65 -63 -65 -137 0 -100 63 -174 176 -205 185 -50 382 44 467
224 28 58 32 78 32 147 0 99 -9 117 -116 232 -43 48 -88 106 -99 128 -36 75
-18 189 38 239 12 10 41 21 66 23 42 5 48 3 81 -30 25 -25 35 -44 35 -67 0
-68 43 -89 111 -55 88 46 91 171 5 242 -61 50 -144 64 -239 42z"/>
<path d="M4814 2736 c-103 -32 -146 -100 -249 -390 -95 -269 -140 -447 -152
-596 -5 -73 -4 -78 18 -93 32 -23 207 -23 293 -1 104 26 238 97 310 165 159
149 170 353 23 419 l-39 18 47 23 c97 48 158 148 159 259 1 109 -46 163 -169
195 -71 18 -184 19 -241 1z m194 -143 c63 -46 64 -109 3 -189 -46 -62 -140
-112 -223 -121 -32 -3 -58 -3 -58 0 0 3 23 72 51 154 32 94 58 155 72 167 29
24 116 18 155 -11z m-103 -447 c44 -19 70 -70 61 -119 -14 -77 -125 -208 -199
-236 -44 -17 -156 -14 -163 4 -13 34 75 321 107 348 27 22 144 24 194 3z"/>
<path d="M4390 1046 l0 -336 50 0 50 0 -2 333 -3 332 -47 3 -48 3 0 -335z"/>
<path d="M4580 1045 l0 -335 45 0 45 0 0 335 0 335 -45 0 -45 0 0 -335z"/>
<path d="M3725 1209 c-17 -4 -42 -21 -57 -36 -76 -83 -59 -255 30 -307 72 -41
191 -14 220 49 21 45 16 55 -27 55 -31 0 -41 -4 -46 -21 -8 -25 -48 -41 -82
-33 -71 18 -70 210 2 228 32 8 70 -13 80 -44 5 -16 15 -20 46 -20 34 0 39 3
39 24 0 12 -10 38 -22 56 -35 51 -109 71 -183 49z"/>
<path d="M4087 1206 c-50 -18 -62 -30 -86 -80 -43 -88 -16 -212 55 -257 25
-15 51 -21 95 -21 90 0 138 38 160 125 22 91 -7 183 -69 220 -42 24 -109 30
-155 13z m95 -67 c22 -12 48 -66 48 -101 0 -78 -45 -136 -95 -124 -55 14 -84
120 -50 186 24 46 58 60 97 39z"/>
<path d="M4854 1210 c-42 -13 -91 -70 -100 -115 -19 -104 12 -197 79 -232 41
-21 144 -20 186 1 35 19 34 16 22 49 -10 25 -10 25 -53 10 -72 -25 -134 0
-140 58 -3 24 -3 24 105 27 l107 3 0 47 c0 54 -24 108 -60 134 -30 22 -104 31
-146 18z m96 -80 c11 -11 20 -31 20 -45 0 -24 -3 -25 -58 -25 -32 0 -61 3 -65
6 -9 9 12 57 30 72 24 18 50 15 73 -8z"/>
<path d="M5614 1210 c-42 -13 -91 -70 -100 -115 -19 -104 12 -197 79 -232 41
-21 144 -20 186 1 35 19 34 16 22 49 -10 25 -10 25 -53 10 -72 -25 -134 0
-140 58 -3 24 -3 24 105 27 l107 3 0 47 c0 54 -24 108 -60 134 -30 22 -104 31
-146 18z m96 -80 c11 -11 20 -31 20 -45 0 -24 -3 -25 -59 -25 -33 0 -63 4 -66
10 -7 12 20 66 37 73 26 11 49 6 68 -13z"/>
<path d="M5193 1194 c-54 -27 -73 -69 -73 -162 0 -99 8 -122 56 -159 34 -25
45 -28 118 -28 64 0 89 4 116 21 34 20 35 22 38 92 l3 72 -81 0 c-79 0 -80 0
-80 -25 0 -22 4 -25 35 -25 33 0 35 -2 35 -34 0 -26 -5 -35 -22 -40 -76 -20
-127 13 -135 86 -12 100 19 158 82 158 34 0 75 -27 75 -50 0 -5 18 -10 40 -10
43 0 48 8 30 54 -16 43 -66 66 -140 66 -39 0 -78 -7 -97 -16z"/>
<path d="M5535 690 c-4 -6 -4 -14 0 -18 3 -3 10 0 15 8 7 12 12 12 22 2 9 -9
6 -18 -15 -40 -35 -37 -34 -52 3 -52 17 0 30 5 30 10 0 6 -7 10 -15 10 -19 0
-19 14 0 30 22 18 15 54 -12 58 -11 2 -24 -2 -28 -8z"/>
<path d="M5627 693 c-4 -3 -7 -26 -7 -50 0 -47 19 -65 49 -46 20 12 27 69 10
89 -12 15 -41 19 -52 7z m41 -49 c-4 -35 -32 -39 -36 -6 -4 27 17 57 30 44 5
-5 8 -22 6 -38z"/>
<path d="M5710 690 c0 -5 4 -10 9 -10 6 0 12 -21 14 -47 3 -47 3 -47 5 10 2
45 -1 57 -13 57 -8 0 -15 -4 -15 -10z"/>
<path d="M5770 690 c0 -5 9 -10 20 -10 25 0 25 -2 0 -50 -11 -22 -16 -40 -10
-40 11 0 50 72 50 95 0 10 -10 15 -30 15 -16 0 -30 -4 -30 -10z"/>
<path d="M3630 520 c0 -7 373 -10 1100 -10 727 0 1100 3 1100 10 0 7 -373 10
-1100 10 -727 0 -1100 -3 -1100 -10z"/>
<path d="M3630 460 c0 -7 373 -10 1100 -10 727 0 1100 3 1100 10 0 7 -373 10
-1100 10 -727 0 -1100 -3 -1100 -10z"/>
</g>
</svg>
